# xmcd
#
# Track frame offsets:
#	150
#	13445
#	26552
#	40472
#	54875
#	69597
#	83290
#	96477
#	110382
#	122960
#	138072
#	152445
#	165552
#	177455
#	191032
#	204080
#	217530
#	232145
#	245935
#	259815
#	273805
#	288037
#	302005
#	315435
#
# Disc length: 4369 seconds
#
# Revision: 1
# Processed by: cddbd v1.5PL3 Copyright (c) Steve Scherf et al.
# Submitted via: audiograbber 1.81.03
#
DISCID=46110f18
DTITLE=Big Bill Broonzy - Complete Recorded Works in Chronological Order Vol. 4
DYEAR=1935
DGENRE=Blues
TTITLE0=Tell Me What Kind of Man Jesus Is (Chicago Sanctified Singers)
TTITLE1=I ain't No Stranger Now (Chicago Sanctified Singers)
TTITLE2=Mountain Blues
TTITLE3=Bad Luck Blues
TTITLE4=I can't Make You Satisfied
TTITLE5=I'm Just a Bum
TTITLE6=Keep Your Hands Off Her
TTITLE7=The Sun Gonna Shine in My Door Someday
TTITLE8=Good Liquor Gonna Carry Me Down
TTITLE9=Down The Line BLues
TTITLE10=Bricks in My Pillow
TTITLE11=Tell Me What You Been Doing
TTITLE12=Ash Hauler
TTITLE13=Evil Women Blues
TTITLE14=These Ants Keep Biting Me
TTITLE15=Big Bill Blues
TTITLE16=You Know I Need Lovin'
TTITLE17=Match Box Blues
TTITLE18=Low Down Woman Blues
TTITLE19=Keep Your Mind On It (Hokum Boys)
TTITLE20=Bull Cow Blues No. 3
TTITLE21=Married Life's a Pain
TTITLE22=Black Mare Blues
TTITLE23=Pneumonia Blues
EXTD=DOCD-5126  3 July 1935 to 22 April 1936
EXTT0=
EXTT1=
EXTT2=
EXTT3=
EXTT4=
EXTT5=
EXTT6=
EXTT7=
EXTT8=
EXTT9=
EXTT10=
EXTT11=
EXTT12=
EXTT13=
EXTT14=
EXTT15=
EXTT16=
EXTT17=
EXTT18=
EXTT19=
EXTT20=
EXTT21=
EXTT22=
EXTT23=
PLAYORDER=
